<svg xmlns="http://www.w3.org/2000/svg" width="512" height="512" viewBox="0 0 512 512">
  <defs>
    <radialGradient id="bg" cx="50%" cy="35%" r="65%">
      <stop offset="0%" stop-color="#1a1710"/>
      <stop offset="100%" stop-color="#0a0a0f"/>
    </radialGradient>
    <radialGradient id="gl" cx="50%" cy="50%" r="50%">
      <stop offset="0%" stop-color="#c8a84b" stop-opacity="0.18"/>
      <stop offset="100%" stop-color="#c8a84b" stop-opacity="0"/>
    </radialGradient>
  </defs>
  <rect width="512" height="512" rx="92" fill="url(#bg)"/>
  <circle cx="256" cy="256" r="255" fill="url(#gl)"/>
  <circle cx="256" cy="256" r="225" fill="none" stroke="#c8a84b" stroke-width="7" stroke-opacity="0.7"/>
  <circle cx="256" cy="256" r="153" fill="none" stroke="#c8a84b" stroke-width="3" stroke-opacity="0.25"/>
  <line x1="256" y1="32" x2="256" y2="73" stroke="#c8a84b" stroke-width="4" stroke-opacity="0.9"/>
  <line x1="275" y1="33" x2="274" y2="49" stroke="#c8a84b" stroke-width="2" stroke-opacity="0.25"/>
  <line x1="294" y1="36" x2="292" y2="52" stroke="#c8a84b" stroke-width="2" stroke-opacity="0.25"/>
  <line x1="313" y1="40" x2="309" y2="56" stroke="#c8a84b" stroke-width="2" stroke-opacity="0.25"/>
  <line x1="332" y1="46" x2="327" y2="61" stroke="#c8a84b" stroke-width="2" stroke-opacity="0.25"/>
  <line x1="350" y1="53" x2="343" y2="68" stroke="#c8a84b" stroke-width="2" stroke-opacity="0.25"/>
  <line x1="367" y1="63" x2="359" y2="76" stroke="#c8a84b" stroke-width="2" stroke-opacity="0.25"/>
  <line x1="384" y1="73" x2="375" y2="86" stroke="#c8a84b" stroke-width="2" stroke-opacity="0.25"/>
  <line x1="399" y1="85" x2="389" y2="97" stroke="#c8a84b" stroke-width="2" stroke-opacity="0.25"/>
  <line x1="414" y1="98" x2="395" y2="117" stroke="#c8a84b" stroke-width="2" stroke-opacity="0.5"/>
  <line x1="427" y1="113" x2="415" y2="123" stroke="#c8a84b" stroke-width="2" stroke-opacity="0.25"/>
  <line x1="439" y1="128" x2="426" y2="137" stroke="#c8a84b" stroke-width="2" stroke-opacity="0.25"/>
  <line x1="449" y1="144" x2="436" y2="152" stroke="#c8a84b" stroke-width="2" stroke-opacity="0.25"/>
  <line x1="459" y1="162" x2="444" y2="169" stroke="#c8a84b" stroke-width="2" stroke-opacity="0.25"/>
  <line x1="466" y1="180" x2="451" y2="185" stroke="#c8a84b" stroke-width="2" stroke-opacity="0.25"/>
  <line x1="472" y1="199" x2="456" y2="203" stroke="#c8a84b" stroke-width="2" stroke-opacity="0.25"/>
  <line x1="476" y1="218" x2="460" y2="220" stroke="#c8a84b" stroke-width="2" stroke-opacity="0.25"/>
  <line x1="479" y1="237" x2="463" y2="238" stroke="#c8a84b" stroke-width="2" stroke-opacity="0.25"/>
  <line x1="480" y1="256" x2="439" y2="256" stroke="#c8a84b" stroke-width="4" stroke-opacity="0.9"/>
  <line x1="479" y1="275" x2="463" y2="274" stroke="#c8a84b" stroke-width="2" stroke-opacity="0.25"/>
  <line x1="476" y1="294" x2="460" y2="292" stroke="#c8a84b" stroke-width="2" stroke-opacity="0.25"/>
  <line x1="472" y1="313" x2="456" y2="309" stroke="#c8a84b" stroke-width="2" stroke-opacity="0.25"/>
  <line x1="466" y1="332" x2="451" y2="327" stroke="#c8a84b" stroke-width="2" stroke-opacity="0.25"/>
  <line x1="459" y1="350" x2="444" y2="343" stroke="#c8a84b" stroke-width="2" stroke-opacity="0.25"/>
  <line x1="449" y1="367" x2="436" y2="359" stroke="#c8a84b" stroke-width="2" stroke-opacity="0.25"/>
  <line x1="439" y1="384" x2="426" y2="375" stroke="#c8a84b" stroke-width="2" stroke-opacity="0.25"/>
  <line x1="427" y1="399" x2="415" y2="389" stroke="#c8a84b" stroke-width="2" stroke-opacity="0.25"/>
  <line x1="414" y1="414" x2="395" y2="395" stroke="#c8a84b" stroke-width="2" stroke-opacity="0.5"/>
  <line x1="399" y1="427" x2="389" y2="415" stroke="#c8a84b" stroke-width="2" stroke-opacity="0.25"/>
  <line x1="384" y1="439" x2="375" y2="426" stroke="#c8a84b" stroke-width="2" stroke-opacity="0.25"/>
  <line x1="367" y1="449" x2="359" y2="436" stroke="#c8a84b" stroke-width="2" stroke-opacity="0.25"/>
  <line x1="350" y1="459" x2="343" y2="444" stroke="#c8a84b" stroke-width="2" stroke-opacity="0.25"/>
  <line x1="332" y1="466" x2="327" y2="451" stroke="#c8a84b" stroke-width="2" stroke-opacity="0.25"/>
  <line x1="313" y1="472" x2="309" y2="456" stroke="#c8a84b" stroke-width="2" stroke-opacity="0.25"/>
  <line x1="294" y1="476" x2="292" y2="460" stroke="#c8a84b" stroke-width="2" stroke-opacity="0.25"/>
  <line x1="275" y1="479" x2="274" y2="463" stroke="#c8a84b" stroke-width="2" stroke-opacity="0.25"/>
  <line x1="256" y1="480" x2="256" y2="439" stroke="#c8a84b" stroke-width="4" stroke-opacity="0.9"/>
  <line x1="237" y1="479" x2="238" y2="463" stroke="#c8a84b" stroke-width="2" stroke-opacity="0.25"/>
  <line x1="218" y1="476" x2="220" y2="460" stroke="#c8a84b" stroke-width="2" stroke-opacity="0.25"/>
  <line x1="199" y1="472" x2="203" y2="456" stroke="#c8a84b" stroke-width="2" stroke-opacity="0.25"/>
  <line x1="180" y1="466" x2="185" y2="451" stroke="#c8a84b" stroke-width="2" stroke-opacity="0.25"/>
  <line x1="162" y1="459" x2="169" y2="444" stroke="#c8a84b" stroke-width="2" stroke-opacity="0.25"/>
  <line x1="144" y1="449" x2="152" y2="436" stroke="#c8a84b" stroke-width="2" stroke-opacity="0.25"/>
  <line x1="128" y1="439" x2="137" y2="426" stroke="#c8a84b" stroke-width="2" stroke-opacity="0.25"/>
  <line x1="113" y1="427" x2="123" y2="415" stroke="#c8a84b" stroke-width="2" stroke-opacity="0.25"/>
  <line x1="98" y1="414" x2="117" y2="395" stroke="#c8a84b" stroke-width="2" stroke-opacity="0.5"/>
  <line x1="85" y1="399" x2="97" y2="389" stroke="#c8a84b" stroke-width="2" stroke-opacity="0.25"/>
  <line x1="73" y1="384" x2="86" y2="375" stroke="#c8a84b" stroke-width="2" stroke-opacity="0.25"/>
  <line x1="63" y1="368" x2="76" y2="360" stroke="#c8a84b" stroke-width="2" stroke-opacity="0.25"/>
  <line x1="53" y1="350" x2="68" y2="343" stroke="#c8a84b" stroke-width="2" stroke-opacity="0.25"/>
  <line x1="46" y1="332" x2="61" y2="327" stroke="#c8a84b" stroke-width="2" stroke-opacity="0.25"/>
  <line x1="40" y1="313" x2="56" y2="309" stroke="#c8a84b" stroke-width="2" stroke-opacity="0.25"/>
  <line x1="36" y1="294" x2="52" y2="292" stroke="#c8a84b" stroke-width="2" stroke-opacity="0.25"/>
  <line x1="33" y1="275" x2="49" y2="274" stroke="#c8a84b" stroke-width="2" stroke-opacity="0.25"/>
  <line x1="32" y1="256" x2="73" y2="256" stroke="#c8a84b" stroke-width="4" stroke-opacity="0.9"/>
  <line x1="33" y1="237" x2="49" y2="238" stroke="#c8a84b" stroke-width="2" stroke-opacity="0.25"/>
  <line x1="36" y1="218" x2="52" y2="220" stroke="#c8a84b" stroke-width="2" stroke-opacity="0.25"/>
  <line x1="40" y1="199" x2="56" y2="203" stroke="#c8a84b" stroke-width="2" stroke-opacity="0.25"/>
  <line x1="46" y1="180" x2="61" y2="185" stroke="#c8a84b" stroke-width="2" stroke-opacity="0.25"/>
  <line x1="53" y1="162" x2="68" y2="169" stroke="#c8a84b" stroke-width="2" stroke-opacity="0.25"/>
  <line x1="63" y1="144" x2="76" y2="152" stroke="#c8a84b" stroke-width="2" stroke-opacity="0.25"/>
  <line x1="73" y1="128" x2="86" y2="137" stroke="#c8a84b" stroke-width="2" stroke-opacity="0.25"/>
  <line x1="85" y1="113" x2="97" y2="123" stroke="#c8a84b" stroke-width="2" stroke-opacity="0.25"/>
  <line x1="98" y1="98" x2="117" y2="117" stroke="#c8a84b" stroke-width="2" stroke-opacity="0.5"/>
  <line x1="113" y1="85" x2="123" y2="97" stroke="#c8a84b" stroke-width="2" stroke-opacity="0.25"/>
  <line x1="128" y1="73" x2="137" y2="86" stroke="#c8a84b" stroke-width="2" stroke-opacity="0.25"/>
  <line x1="144" y1="63" x2="152" y2="76" stroke="#c8a84b" stroke-width="2" stroke-opacity="0.25"/>
  <line x1="162" y1="53" x2="169" y2="68" stroke="#c8a84b" stroke-width="2" stroke-opacity="0.25"/>
  <line x1="180" y1="46" x2="185" y2="61" stroke="#c8a84b" stroke-width="2" stroke-opacity="0.25"/>
  <line x1="199" y1="40" x2="203" y2="56" stroke="#c8a84b" stroke-width="2" stroke-opacity="0.25"/>
  <line x1="218" y1="36" x2="220" y2="52" stroke="#c8a84b" stroke-width="2" stroke-opacity="0.25"/>
  <line x1="237" y1="33" x2="238" y2="49" stroke="#c8a84b" stroke-width="2" stroke-opacity="0.25"/>
  <polygon points="256,77 279,256 233,256" fill="#e74c3c" opacity="0.95"/>
  <polygon points="256,435 279,256 233,256" fill="#c8a84b" opacity="0.55"/>
  <circle cx="256" cy="256" r="28" fill="#c8a84b" opacity="0.9"/>
  <text x="256" y="130" text-anchor="middle" dominant-baseline="central" font-family="serif" font-size="61" font-weight="bold" fill="#e74c3c">北</text>
  <text x="256" y="395" text-anchor="middle" dominant-baseline="central" font-family="serif" font-size="51" font-weight="bold" fill="#c8a84b" opacity="0.8">南</text>
  <text x="386" y="256" text-anchor="middle" dominant-baseline="central" font-family="serif" font-size="51" font-weight="bold" fill="#c8a84b" opacity="0.8">東</text>
  <text x="126" y="256" text-anchor="middle" dominant-baseline="central" font-family="serif" font-size="51" font-weight="bold" fill="#c8a84b" opacity="0.8">西</text>
</svg>