<svg xmlns="http://www.w3.org/2000/svg" width="192" height="192" viewBox="0 0 192 192">
  <defs>
    <radialGradient id="bg" cx="50%" cy="35%" r="65%">
      <stop offset="0%" stop-color="#1a1710"/>
      <stop offset="100%" stop-color="#0a0a0f"/>
    </radialGradient>
    <radialGradient id="gl" cx="50%" cy="50%" r="50%">
      <stop offset="0%" stop-color="#c8a84b" stop-opacity="0.18"/>
      <stop offset="100%" stop-color="#c8a84b" stop-opacity="0"/>
    </radialGradient>
  </defs>
  <rect width="192" height="192" rx="34" fill="url(#bg)"/>
  <circle cx="96" cy="96" r="95" fill="url(#gl)"/>
  <circle cx="96" cy="96" r="84" fill="none" stroke="#c8a84b" stroke-width="2" stroke-opacity="0.7"/>
  <circle cx="96" cy="96" r="57" fill="none" stroke="#c8a84b" stroke-width="1" stroke-opacity="0.25"/>
  <line x1="96" y1="13" x2="96" y2="28" stroke="#c8a84b" stroke-width="1" stroke-opacity="0.9"/>
  <line x1="103" y1="14" x2="102" y2="20" stroke="#c8a84b" stroke-width="1" stroke-opacity="0.25"/>
  <line x1="110" y1="15" x2="109" y2="21" stroke="#c8a84b" stroke-width="1" stroke-opacity="0.25"/>
  <line x1="117" y1="16" x2="115" y2="22" stroke="#c8a84b" stroke-width="1" stroke-opacity="0.25"/>
  <line x1="124" y1="19" x2="122" y2="24" stroke="#c8a84b" stroke-width="1" stroke-opacity="0.25"/>
  <line x1="131" y1="21" x2="128" y2="27" stroke="#c8a84b" stroke-width="1" stroke-opacity="0.25"/>
  <line x1="137" y1="25" x2="134" y2="30" stroke="#c8a84b" stroke-width="1" stroke-opacity="0.25"/>
  <line x1="143" y1="29" x2="140" y2="33" stroke="#c8a84b" stroke-width="1" stroke-opacity="0.25"/>
  <line x1="149" y1="33" x2="145" y2="38" stroke="#c8a84b" stroke-width="1" stroke-opacity="0.25"/>
  <line x1="154" y1="38" x2="147" y2="45" stroke="#c8a84b" stroke-width="1" stroke-opacity="0.5"/>
  <line x1="159" y1="43" x2="154" y2="47" stroke="#c8a84b" stroke-width="1" stroke-opacity="0.25"/>
  <line x1="163" y1="49" x2="159" y2="52" stroke="#c8a84b" stroke-width="1" stroke-opacity="0.25"/>
  <line x1="167" y1="55" x2="162" y2="58" stroke="#c8a84b" stroke-width="1" stroke-opacity="0.25"/>
  <line x1="171" y1="61" x2="165" y2="64" stroke="#c8a84b" stroke-width="1" stroke-opacity="0.25"/>
  <line x1="173" y1="68" x2="168" y2="70" stroke="#c8a84b" stroke-width="1" stroke-opacity="0.25"/>
  <line x1="176" y1="75" x2="170" y2="77" stroke="#c8a84b" stroke-width="1" stroke-opacity="0.25"/>
  <line x1="177" y1="82" x2="171" y2="83" stroke="#c8a84b" stroke-width="1" stroke-opacity="0.25"/>
  <line x1="178" y1="89" x2="172" y2="90" stroke="#c8a84b" stroke-width="1" stroke-opacity="0.25"/>
  <line x1="179" y1="96" x2="164" y2="96" stroke="#c8a84b" stroke-width="1" stroke-opacity="0.9"/>
  <line x1="178" y1="103" x2="172" y2="102" stroke="#c8a84b" stroke-width="1" stroke-opacity="0.25"/>
  <line x1="177" y1="110" x2="171" y2="109" stroke="#c8a84b" stroke-width="1" stroke-opacity="0.25"/>
  <line x1="176" y1="117" x2="170" y2="115" stroke="#c8a84b" stroke-width="1" stroke-opacity="0.25"/>
  <line x1="173" y1="124" x2="168" y2="122" stroke="#c8a84b" stroke-width="1" stroke-opacity="0.25"/>
  <line x1="171" y1="131" x2="165" y2="128" stroke="#c8a84b" stroke-width="1" stroke-opacity="0.25"/>
  <line x1="167" y1="137" x2="162" y2="134" stroke="#c8a84b" stroke-width="1" stroke-opacity="0.25"/>
  <line x1="163" y1="143" x2="159" y2="140" stroke="#c8a84b" stroke-width="1" stroke-opacity="0.25"/>
  <line x1="159" y1="149" x2="154" y2="145" stroke="#c8a84b" stroke-width="1" stroke-opacity="0.25"/>
  <line x1="154" y1="154" x2="147" y2="147" stroke="#c8a84b" stroke-width="1" stroke-opacity="0.5"/>
  <line x1="149" y1="159" x2="145" y2="154" stroke="#c8a84b" stroke-width="1" stroke-opacity="0.25"/>
  <line x1="143" y1="163" x2="140" y2="159" stroke="#c8a84b" stroke-width="1" stroke-opacity="0.25"/>
  <line x1="137" y1="167" x2="134" y2="162" stroke="#c8a84b" stroke-width="1" stroke-opacity="0.25"/>
  <line x1="131" y1="171" x2="128" y2="165" stroke="#c8a84b" stroke-width="1" stroke-opacity="0.25"/>
  <line x1="124" y1="173" x2="122" y2="168" stroke="#c8a84b" stroke-width="1" stroke-opacity="0.25"/>
  <line x1="117" y1="176" x2="115" y2="170" stroke="#c8a84b" stroke-width="1" stroke-opacity="0.25"/>
  <line x1="110" y1="177" x2="109" y2="171" stroke="#c8a84b" stroke-width="1" stroke-opacity="0.25"/>
  <line x1="103" y1="178" x2="102" y2="172" stroke="#c8a84b" stroke-width="1" stroke-opacity="0.25"/>
  <line x1="96" y1="179" x2="96" y2="164" stroke="#c8a84b" stroke-width="1" stroke-opacity="0.9"/>
  <line x1="89" y1="178" x2="90" y2="172" stroke="#c8a84b" stroke-width="1" stroke-opacity="0.25"/>
  <line x1="82" y1="177" x2="83" y2="171" stroke="#c8a84b" stroke-width="1" stroke-opacity="0.25"/>
  <line x1="75" y1="176" x2="77" y2="170" stroke="#c8a84b" stroke-width="1" stroke-opacity="0.25"/>
  <line x1="68" y1="173" x2="70" y2="168" stroke="#c8a84b" stroke-width="1" stroke-opacity="0.25"/>
  <line x1="61" y1="171" x2="64" y2="165" stroke="#c8a84b" stroke-width="1" stroke-opacity="0.25"/>
  <line x1="55" y1="167" x2="58" y2="162" stroke="#c8a84b" stroke-width="1" stroke-opacity="0.25"/>
  <line x1="49" y1="163" x2="52" y2="159" stroke="#c8a84b" stroke-width="1" stroke-opacity="0.25"/>
  <line x1="43" y1="159" x2="47" y2="154" stroke="#c8a84b" stroke-width="1" stroke-opacity="0.25"/>
  <line x1="38" y1="154" x2="45" y2="147" stroke="#c8a84b" stroke-width="1" stroke-opacity="0.5"/>
  <line x1="33" y1="149" x2="38" y2="145" stroke="#c8a84b" stroke-width="1" stroke-opacity="0.25"/>
  <line x1="29" y1="143" x2="33" y2="140" stroke="#c8a84b" stroke-width="1" stroke-opacity="0.25"/>
  <line x1="25" y1="137" x2="30" y2="134" stroke="#c8a84b" stroke-width="1" stroke-opacity="0.25"/>
  <line x1="21" y1="131" x2="27" y2="128" stroke="#c8a84b" stroke-width="1" stroke-opacity="0.25"/>
  <line x1="19" y1="124" x2="24" y2="122" stroke="#c8a84b" stroke-width="1" stroke-opacity="0.25"/>
  <line x1="16" y1="117" x2="22" y2="115" stroke="#c8a84b" stroke-width="1" stroke-opacity="0.25"/>
  <line x1="15" y1="110" x2="21" y2="109" stroke="#c8a84b" stroke-width="1" stroke-opacity="0.25"/>
  <line x1="14" y1="103" x2="20" y2="102" stroke="#c8a84b" stroke-width="1" stroke-opacity="0.25"/>
  <line x1="13" y1="96" x2="28" y2="96" stroke="#c8a84b" stroke-width="1" stroke-opacity="0.9"/>
  <line x1="14" y1="89" x2="20" y2="90" stroke="#c8a84b" stroke-width="1" stroke-opacity="0.25"/>
  <line x1="15" y1="82" x2="21" y2="83" stroke="#c8a84b" stroke-width="1" stroke-opacity="0.25"/>
  <line x1="16" y1="75" x2="22" y2="77" stroke="#c8a84b" stroke-width="1" stroke-opacity="0.25"/>
  <line x1="19" y1="68" x2="24" y2="70" stroke="#c8a84b" stroke-width="1" stroke-opacity="0.25"/>
  <line x1="21" y1="61" x2="27" y2="64" stroke="#c8a84b" stroke-width="1" stroke-opacity="0.25"/>
  <line x1="25" y1="55" x2="30" y2="58" stroke="#c8a84b" stroke-width="1" stroke-opacity="0.25"/>
  <line x1="29" y1="49" x2="33" y2="52" stroke="#c8a84b" stroke-width="1" stroke-opacity="0.25"/>
  <line x1="33" y1="43" x2="38" y2="47" stroke="#c8a84b" stroke-width="1" stroke-opacity="0.25"/>
  <line x1="38" y1="38" x2="45" y2="45" stroke="#c8a84b" stroke-width="1" stroke-opacity="0.5"/>
  <line x1="43" y1="33" x2="47" y2="38" stroke="#c8a84b" stroke-width="1" stroke-opacity="0.25"/>
  <line x1="49" y1="29" x2="52" y2="33" stroke="#c8a84b" stroke-width="1" stroke-opacity="0.25"/>
  <line x1="55" y1="25" x2="58" y2="30" stroke="#c8a84b" stroke-width="1" stroke-opacity="0.25"/>
  <line x1="61" y1="21" x2="64" y2="27" stroke="#c8a84b" stroke-width="1" stroke-opacity="0.25"/>
  <line x1="68" y1="19" x2="70" y2="24" stroke="#c8a84b" stroke-width="1" stroke-opacity="0.25"/>
  <line x1="75" y1="16" x2="77" y2="22" stroke="#c8a84b" stroke-width="1" stroke-opacity="0.25"/>
  <line x1="82" y1="15" x2="83" y2="21" stroke="#c8a84b" stroke-width="1" stroke-opacity="0.25"/>
  <line x1="89" y1="14" x2="90" y2="20" stroke="#c8a84b" stroke-width="1" stroke-opacity="0.25"/>
  <polygon points="96,29 104,96 88,96" fill="#e74c3c" opacity="0.95"/>
  <polygon points="96,163 104,96 88,96" fill="#c8a84b" opacity="0.55"/>
  <circle cx="96" cy="96" r="10" fill="#c8a84b" opacity="0.9"/>
  <text x="96" y="49" text-anchor="middle" dominant-baseline="central" font-family="serif" font-size="23" font-weight="bold" fill="#e74c3c">北</text>
  <text x="96" y="148" text-anchor="middle" dominant-baseline="central" font-family="serif" font-size="19" font-weight="bold" fill="#c8a84b" opacity="0.8">南</text>
  <text x="144" y="96" text-anchor="middle" dominant-baseline="central" font-family="serif" font-size="19" font-weight="bold" fill="#c8a84b" opacity="0.8">東</text>
  <text x="48" y="96" text-anchor="middle" dominant-baseline="central" font-family="serif" font-size="19" font-weight="bold" fill="#c8a84b" opacity="0.8">西</text>
</svg>